<svg xmlns="http://www.w3.org/2000/svg" width="36" height="25" viewBox="0 0 36 25" fill="none" aria-hidden="true" focusable="false">
            <title>Amex</title>
            <rect x="0.794873" y="1.16865" width="34.4" height="23.4" rx="2.7" fill="#1F72CD" stroke="#D9D9D9" stroke-width="0.6"></rect>
            <path fill-rule="evenodd" clip-rule="evenodd" d="M6.76955 9.36865L3.49487 16.6154H7.41512L7.90111 15.46H9.01199L9.49799 16.6154H13.8131V15.7335L14.1976 16.6154H16.4297L16.8142 15.7149V16.6154H25.7884L26.8796 15.49L27.9014 16.6154L32.5107 16.6247L29.2257 13.0123L32.5107 9.36865H27.9729L26.9106 10.4733L25.921 9.36865H16.1583L15.3199 11.2391L14.4619 9.36865H10.5499V10.2205L10.1147 9.36865H6.76955ZM20.1707 10.3978H25.3241L26.9003 12.1004L28.5273 10.3978H30.1035L27.7086 13.0113L30.1035 15.5948H28.4558L26.8796 13.8724L25.2443 15.5948H20.1707V10.3978ZM21.4433 12.4236V11.4744V11.4735H24.6589L26.062 12.9916L24.5967 14.518H21.4433V13.4817H24.2547V12.4236H21.4433ZM7.52809 10.3978H9.439L11.6111 15.3119V10.3978H13.7044L15.3821 13.9212L16.9283 10.3978H19.0112V15.5978H17.7438L17.7334 11.5231L15.8857 15.5978H14.752L12.8939 11.5231V15.5978H10.2867L9.79236 14.432H7.12189L6.62862 15.5968H5.23166L7.52809 10.3978ZM7.57785 13.3543L8.45766 11.2776L9.33645 13.3543H7.57785Z" fill="white"></path>
        </svg>