<svg xmlns="http://www.w3.org/2000/svg" width="20" height="20" viewBox="0 0 17 17" fill="none" aria-hidden="true" focusable="false">
            <title>AutoPay</title>
            <g clip-path="url(#clip0_8671_7118)">
                <path d="M8.91375 11.2569C9.34543 11.2569 9.73293 11.1492 10.0762 10.9338C10.4194 10.7186 10.591 10.3732 10.591 9.89761C10.591 9.50183 10.4435 9.18658 10.1485 8.95184C9.85333 8.71698 9.30271 8.45171 8.49661 8.15605C7.71681 7.87606 7.1543 7.56251 6.80909 7.2154C6.46387 6.86828 6.29127 6.40981 6.29127 5.83997C6.29127 5.3509 6.46779 4.90311 6.82084 4.49659C7.17377 4.09019 7.6672 3.83106 8.30113 3.71919V3.31816C8.30113 3.18013 8.35295 3.05935 8.45661 2.95582C8.56013 2.85217 8.68091 2.80034 8.81895 2.80034C8.95698 2.80034 9.07777 2.85217 9.18129 2.95582C9.28495 3.05935 9.33677 3.18013 9.33677 3.31816V3.71919C9.69362 3.74447 10.0257 3.86045 10.333 4.06712C10.6401 4.2738 10.891 4.53027 11.0855 4.83656C11.1546 4.94147 11.1609 5.05353 11.1045 5.17273C11.0481 5.29181 10.9533 5.37568 10.8201 5.42435C10.6947 5.47289 10.568 5.47921 10.4401 5.44331C10.3123 5.40728 10.2075 5.33434 10.1257 5.2245C9.97999 5.04841 9.80132 4.9057 9.58971 4.79636C9.37823 4.68702 9.12763 4.63235 8.83791 4.63235C8.36629 4.63235 7.99655 4.74415 7.72869 4.96777C7.46084 5.19138 7.32691 5.48211 7.32691 5.83997C7.32691 6.19783 7.45768 6.47643 7.71921 6.67577C7.98075 6.87511 8.5102 7.11092 9.30757 7.3832C10.2177 7.71186 10.8293 8.08033 11.1424 8.48862C11.4555 8.89704 11.6121 9.3667 11.6121 9.89761C11.6121 10.2594 11.5452 10.5769 11.4115 10.85C11.2777 11.1233 11.103 11.3531 10.8872 11.5392C10.6713 11.7254 10.4255 11.8725 10.1498 11.9805C9.87413 12.0883 9.59047 12.1641 9.29885 12.208V12.609C9.29885 12.7471 9.24702 12.8678 9.14337 12.9714C9.03984 13.075 8.91906 13.1268 8.78103 13.1268C8.64299 13.1268 8.52221 13.075 8.41868 12.9714C8.31503 12.8678 8.2632 12.7471 8.2632 12.609V12.1701C7.79752 12.069 7.39403 11.8878 7.05274 11.6267C6.71144 11.3656 6.4348 11.0251 6.22282 10.605C6.16151 10.4718 6.161 10.34 6.2213 10.2097C6.2816 10.0794 6.37836 9.98995 6.51159 9.94141C6.63699 9.89274 6.76485 9.89344 6.89517 9.9435C7.0255 9.99368 7.12517 10.0776 7.19419 10.1951C7.39062 10.5432 7.63686 10.8072 7.9329 10.9871C8.22895 11.167 8.5559 11.2569 8.91375 11.2569ZM8.79999 15.9272C7.32103 15.9272 5.97892 15.5611 4.77363 14.8288C3.56847 14.0966 2.62315 13.1155 1.93764 11.8855V13.5789C1.93764 13.7403 1.88316 13.8755 1.7742 13.9845C1.66537 14.0933 1.53024 14.1477 1.36882 14.1477C1.2074 14.1477 1.0722 14.0933 0.963242 13.9845C0.854406 13.8755 0.799988 13.7403 0.799988 13.5789V10.6619C0.799988 10.4664 0.86534 10.3032 0.996044 10.1725C1.12687 10.0417 1.29 9.9763 1.48543 9.9763H4.40257C4.56399 9.9763 4.69912 10.0308 4.80795 10.1397C4.91691 10.2486 4.97139 10.3837 4.97139 10.5451C4.97139 10.7065 4.91691 10.8417 4.80795 10.9507C4.69912 11.0595 4.56399 11.114 4.40257 11.114H2.81705C3.3654 12.2186 4.17586 13.1074 5.24841 13.7802C6.32097 14.4531 7.50483 14.7895 8.79999 14.7895C10.5628 14.7895 12.0846 14.2076 13.3652 13.0436C14.6458 11.8798 15.3844 10.4271 15.5808 8.68563C15.6012 8.52711 15.6677 8.39875 15.7805 8.30053C15.8933 8.20231 16.029 8.1532 16.1874 8.1532C16.3488 8.1532 16.4847 8.20743 16.595 8.31589C16.7054 8.42422 16.7504 8.55379 16.73 8.70459C16.6366 9.72064 16.3658 10.6665 15.9175 11.5421C15.4693 12.4177 14.8906 13.1805 14.1813 13.8305C13.4719 14.4805 12.658 14.9924 11.7397 15.3663C10.8212 15.7402 9.84132 15.9272 8.79999 15.9272ZM8.79999 1.13766C7.06633 1.13766 5.55312 1.7111 4.26036 2.85798C2.9676 4.00487 2.22054 5.46366 2.01918 7.23436C1.99882 7.39287 1.93227 7.52244 1.81952 7.62306C1.70664 7.72368 1.571 7.77399 1.41262 7.77399C1.24627 7.77399 1.10911 7.71976 1.00116 7.6113C0.893339 7.50297 0.849602 7.371 0.869954 7.2154C0.972975 6.17988 1.25227 5.22304 1.70784 4.3449C2.16341 3.46688 2.74589 2.70655 3.45528 2.0639C4.16454 1.42112 4.97594 0.916445 5.88948 0.549867C6.80302 0.183289 7.77319 0 8.79999 0C10.2644 0 11.6065 0.367337 12.8263 1.10201C14.0462 1.83656 14.9915 2.82619 15.6623 4.07091V2.34831C15.6623 2.18689 15.7168 2.0517 15.8258 1.94274C15.9346 1.8339 16.0697 1.77948 16.2312 1.77948C16.3926 1.77948 16.5278 1.8339 16.6367 1.94274C16.7456 2.0517 16.8 2.18689 16.8 2.34831V5.26526C16.8 5.46081 16.7346 5.62394 16.6039 5.75465C16.4731 5.88548 16.31 5.95089 16.1146 5.95089H13.1974C13.036 5.95089 12.9009 5.89641 12.792 5.78745C12.6831 5.67861 12.6286 5.54348 12.6286 5.38206C12.6286 5.22064 12.6831 5.08545 12.792 4.97649C12.9009 4.86765 13.036 4.81323 13.1974 4.81323H14.7829C14.2491 3.72804 13.4447 2.84414 12.3698 2.16155C11.2948 1.47895 10.1049 1.13766 8.79999 1.13766Z" fill="#085368"></path>
            </g>
            <defs>
                <clipPath id="clip0_8671_7118">
                    <rect width="16" height="16" fill="white" transform="translate(0.799988)"></rect>
                </clipPath>
            </defs>
        </svg>