<svg width="48" height="25" viewBox="0 0 48 25" fill="none" xmlns="http://www.w3.org/2000/svg" aria-hidden="true" focusable="false">
            <title>Bank</title>
            <path d="M3.5423 1.24365H44.5716C46.0213 1.24365 47.1966 2.41891 47.1966 3.86865V21.8687C47.1966 23.3184 46.0213 24.4937 44.5716 24.4937H3.5423C2.09255 24.4937 0.917297 23.3184 0.917297 21.8687V3.86865C0.917297 2.4189 2.09255 1.24365 3.5423 1.24365Z" fill="white"></path>
            <path d="M3.5423 1.24365H44.5716C46.0213 1.24365 47.1966 2.41891 47.1966 3.86865V21.8687C47.1966 23.3184 46.0213 24.4937 44.5716 24.4937H3.5423C2.09255 24.4937 0.917297 23.3184 0.917297 21.8687V3.86865C0.917297 2.4189 2.09255 1.24365 3.5423 1.24365Z" stroke="#D1D1D1" stroke-width="0.75"></path>
            <path d="M7.61524 15.3414V12.7613C7.61524 12.6375 7.65769 12.5334 7.74259 12.4489C7.82756 12.3644 7.93158 12.3221 8.05464 12.3221C8.17777 12.3221 8.28212 12.3644 8.36768 12.4489C8.45332 12.5334 8.49614 12.6375 8.49614 12.7613V15.344C8.49614 15.4678 8.4541 15.5719 8.37001 15.6564C8.286 15.7409 8.18243 15.7832 8.0593 15.7832C7.93624 15.7832 7.83144 15.7405 7.74492 15.6551C7.65846 15.5697 7.61524 15.4652 7.61524 15.3414ZM10.4531 15.344V12.7613C10.4531 12.6375 10.4951 12.5334 10.5792 12.4489C10.6632 12.3644 10.7668 12.3221 10.8899 12.3221C11.013 12.3221 11.1173 12.3644 11.203 12.4489C11.2886 12.5334 11.3314 12.6375 11.3314 12.7613V15.344C11.3314 15.4678 11.2894 15.5719 11.2053 15.6564C11.1213 15.7409 11.0177 15.7832 10.8946 15.7832C10.7715 15.7832 10.6672 15.7409 10.5815 15.6564C10.4959 15.5719 10.4531 15.4678 10.4531 15.344ZM7.00268 17.1542C6.87363 17.1542 6.76462 17.1099 6.67565 17.0214C6.58676 16.933 6.54231 16.8245 6.54231 16.6962C6.54231 16.5678 6.58676 16.4585 6.67565 16.3685C6.76462 16.2785 6.87363 16.2335 7.00268 16.2335H14.7818C14.9109 16.2335 15.0199 16.2777 15.1089 16.3661C15.1978 16.4546 15.2422 16.563 15.2422 16.6915C15.2422 16.8199 15.1978 16.9291 15.1089 17.0191C15.0199 17.1092 14.9109 17.1542 14.7818 17.1542H7.00268ZM13.2884 15.3414V12.7613C13.2884 12.6375 13.3309 12.5334 13.4158 12.4489C13.5007 12.3644 13.6047 12.3221 13.7279 12.3221C13.8509 12.3221 13.9553 12.3644 14.0409 12.4489C14.1265 12.5334 14.1693 12.6375 14.1693 12.7613V15.344C14.1693 15.4678 14.1273 15.5719 14.0433 15.6564C13.9592 15.7409 13.8556 15.7832 13.7325 15.7832C13.6094 15.7832 13.5046 15.7405 13.4182 15.6551C13.3316 15.5697 13.2884 15.4652 13.2884 15.3414ZM14.6381 11.8692H7.08299C6.93279 11.8692 6.80511 11.8169 6.69995 11.7121C6.59486 11.6073 6.54231 11.4801 6.54231 11.3305V10.9977C6.54231 10.8983 6.56945 10.8022 6.62374 10.7094C6.67794 10.6166 6.75105 10.5491 6.84305 10.5068L10.4843 8.68748C10.6119 8.61767 10.7479 8.58276 10.8923 8.58276C11.0366 8.58276 11.1726 8.61767 11.3003 8.68748L14.914 10.493C15.0133 10.5427 15.0929 10.6158 15.1526 10.7123C15.2123 10.8089 15.2422 10.9152 15.2422 11.0312V11.2625C15.2422 11.4328 15.1841 11.5765 15.0679 11.6936C14.9517 11.8107 14.8084 11.8692 14.6381 11.8692ZM8.02402 10.9485H13.7605L10.8923 9.51991L8.02402 10.9485Z" fill="#1C1B1F"></path>
            <path d="M19.9453 16.3687V9.49678H22.5234C23.0484 9.49678 23.4687 9.56709 23.7844 9.70771C24.1031 9.84521 24.3516 10.0593 24.5297 10.3499C24.7109 10.6374 24.8016 10.939 24.8016 11.2546C24.8016 11.5483 24.7219 11.8249 24.5625 12.0843C24.4031 12.3437 24.1625 12.553 23.8406 12.7124C24.2562 12.8343 24.575 13.0421 24.7969 13.3358C25.0219 13.6296 25.1344 13.9765 25.1344 14.3765C25.1344 14.6983 25.0656 14.9983 24.9281 15.2765C24.7937 15.5515 24.6266 15.764 24.4266 15.914C24.2266 16.064 23.975 16.178 23.6719 16.2562C23.3719 16.3312 23.0031 16.3687 22.5656 16.3687H19.9453ZM20.8547 12.3843H22.3406C22.7437 12.3843 23.0328 12.3577 23.2078 12.3046C23.4391 12.2358 23.6125 12.1218 23.7281 11.9624C23.8469 11.803 23.9062 11.603 23.9062 11.3624C23.9062 11.1343 23.8516 10.9343 23.7422 10.7624C23.6328 10.5874 23.4766 10.4687 23.2734 10.4062C23.0703 10.3405 22.7219 10.3077 22.2281 10.3077H20.8547V12.3843ZM20.8547 15.5577H22.5656C22.8594 15.5577 23.0656 15.5468 23.1844 15.5249C23.3937 15.4874 23.5687 15.4249 23.7094 15.3374C23.85 15.2499 23.9656 15.1233 24.0562 14.9577C24.1469 14.789 24.1922 14.5952 24.1922 14.3765C24.1922 14.1202 24.1266 13.8983 23.9953 13.7108C23.8641 13.5202 23.6812 13.3874 23.4469 13.3124C23.2156 13.2343 22.8812 13.1952 22.4437 13.1952H20.8547V15.5577ZM29.5266 15.7546C29.2141 16.0202 28.9125 16.2077 28.6219 16.3171C28.3344 16.4265 28.025 16.4812 27.6937 16.4812C27.1469 16.4812 26.7266 16.3483 26.4328 16.0827C26.1391 15.814 25.9922 15.4718 25.9922 15.0562C25.9922 14.8124 26.0469 14.5905 26.1562 14.3905C26.2687 14.1874 26.4141 14.0249 26.5922 13.903C26.7734 13.7812 26.9766 13.689 27.2016 13.6265C27.3672 13.5827 27.6172 13.5405 27.9516 13.4999C28.6328 13.4187 29.1344 13.3218 29.4562 13.2093C29.4594 13.0937 29.4609 13.0202 29.4609 12.989C29.4609 12.6452 29.3812 12.403 29.2219 12.2624C29.0062 12.0718 28.6859 11.9765 28.2609 11.9765C27.8641 11.9765 27.5703 12.0468 27.3797 12.1874C27.1922 12.3249 27.0531 12.5702 26.9625 12.9233L26.1375 12.8108C26.2125 12.4577 26.3359 12.1733 26.5078 11.9577C26.6797 11.739 26.9281 11.5718 27.2531 11.4562C27.5781 11.3374 27.9547 11.278 28.3828 11.278C28.8078 11.278 29.1531 11.328 29.4187 11.428C29.6844 11.528 29.8797 11.6546 30.0047 11.8077C30.1297 11.9577 30.2172 12.1483 30.2672 12.3796C30.2953 12.5233 30.3094 12.7827 30.3094 13.1577V14.2827C30.3094 15.0671 30.3266 15.564 30.3609 15.7733C30.3984 15.9796 30.4703 16.178 30.5766 16.3687H29.6953C29.6078 16.1937 29.5516 15.989 29.5266 15.7546ZM29.4562 13.8702C29.15 13.9952 28.6906 14.1015 28.0781 14.189C27.7312 14.239 27.4859 14.2952 27.3422 14.3577C27.1984 14.4202 27.0875 14.5124 27.0094 14.6343C26.9312 14.753 26.8922 14.8858 26.8922 15.0327C26.8922 15.2577 26.9766 15.4452 27.1453 15.5952C27.3172 15.7452 27.5672 15.8202 27.8953 15.8202C28.2203 15.8202 28.5094 15.7499 28.7625 15.6093C29.0156 15.4655 29.2016 15.2702 29.3203 15.0233C29.4109 14.8327 29.4562 14.5515 29.4562 14.1796V13.8702ZM31.6219 16.3687V11.3905H32.3812V12.0983C32.7469 11.5515 33.275 11.278 33.9656 11.278C34.2656 11.278 34.5406 11.3327 34.7906 11.4421C35.0437 11.5483 35.2328 11.689 35.3578 11.864C35.4828 12.039 35.5703 12.2468 35.6203 12.4874C35.6516 12.6437 35.6672 12.9171 35.6672 13.3077V16.3687H34.8234V13.3405C34.8234 12.9968 34.7906 12.7405 34.725 12.5718C34.6594 12.3999 34.5422 12.264 34.3734 12.164C34.2078 12.0608 34.0125 12.0093 33.7875 12.0093C33.4281 12.0093 33.1172 12.1233 32.8547 12.3515C32.5953 12.5796 32.4656 13.0124 32.4656 13.6499V16.3687H31.6219ZM36.9703 16.3687V9.49678H37.8141V13.4155L39.8109 11.3905H40.9031L39 13.2374L41.0953 16.3687H40.0547L38.4094 13.8233L37.8141 14.3952V16.3687H36.9703Z" fill="black"></path>
        </svg>