<svg width="47" height="25" viewBox="0 0 47 25" fill="none" xmlns="http://www.w3.org/2000/svg" aria-hidden="true" focusable="false">
            <title>Card</title>
            <path d="M3.14655 1.24365H43.7462C45.1959 1.24365 46.3712 2.41891 46.3712 3.86865V21.8687C46.3712 23.3184 45.1959 24.4937 43.7462 24.4937H3.14655C1.6968 24.4937 0.521545 23.3184 0.521545 21.8687V3.86865C0.521545 2.50957 1.5544 1.39183 2.87799 1.25732L3.14655 1.24365Z" fill="white"></path>
            <path d="M3.14655 1.24365H43.7462C45.1959 1.24365 46.3712 2.41891 46.3712 3.86865V21.8687C46.3712 23.3184 45.1959 24.4937 43.7462 24.4937H3.14655C1.6968 24.4937 0.521545 23.3184 0.521545 21.8687V3.86865C0.521545 2.50957 1.5544 1.39183 2.87799 1.25732L3.14655 1.24365Z" stroke="#D1D1D1" stroke-width="0.75"></path>
            <path d="M15.7465 9.99249V15.7447C15.7465 15.9999 15.6581 16.2159 15.4813 16.3928C15.3044 16.5696 15.0884 16.658 14.8332 16.658H7.05993C6.80469 16.658 6.58865 16.5696 6.41181 16.3928C6.23497 16.2159 6.14655 15.9999 6.14655 15.7447V9.99249C6.14655 9.73725 6.23497 9.52121 6.41181 9.34436C6.58865 9.16752 6.80469 9.0791 7.05993 9.0791H14.8332C15.0884 9.0791 15.3044 9.16752 15.4813 9.34436C15.6581 9.52121 15.7465 9.73725 15.7465 9.99249ZM6.90444 11.0516H14.9887V9.99249C14.9887 9.95359 14.9724 9.91796 14.94 9.88563C14.9077 9.85321 14.8721 9.837 14.8332 9.837H7.05993C7.02103 9.837 6.98541 9.85321 6.95307 9.88563C6.92065 9.91796 6.90444 9.95359 6.90444 9.99249V11.0516ZM6.90444 12.6644V15.7447C6.90444 15.7836 6.92065 15.8192 6.95307 15.8515C6.98541 15.8839 7.02103 15.9002 7.05993 15.9002H14.8332C14.8721 15.9002 14.9077 15.8839 14.94 15.8515C14.9724 15.8192 14.9887 15.7836 14.9887 15.7447V12.6644H6.90444Z" fill="#1C1B1F"></path>
            <path d="M25.3903 13.9593L26.2997 14.189C26.109 14.9358 25.7653 15.5062 25.2684 15.8999C24.7747 16.2905 24.17 16.4858 23.4544 16.4858C22.7137 16.4858 22.1106 16.3358 21.645 16.0358C21.1825 15.7327 20.8294 15.2952 20.5856 14.7233C20.345 14.1515 20.2247 13.5374 20.2247 12.8812C20.2247 12.1655 20.3606 11.5421 20.6325 11.0108C20.9075 10.4765 21.2965 10.0718 21.7997 9.79678C22.3059 9.51865 22.8622 9.37959 23.4684 9.37959C24.1559 9.37959 24.734 9.55459 25.2028 9.90459C25.6715 10.2546 25.9981 10.7468 26.1825 11.3812L25.2872 11.5921C25.1278 11.0921 24.8965 10.728 24.5934 10.4999C24.2903 10.2718 23.909 10.1577 23.4497 10.1577C22.9215 10.1577 22.4794 10.2843 22.1231 10.5374C21.77 10.7905 21.5215 11.1312 21.3778 11.5593C21.234 11.9843 21.1622 12.4233 21.1622 12.8765C21.1622 13.4608 21.2465 13.9718 21.4153 14.4093C21.5872 14.8437 21.8528 15.1687 22.2122 15.3843C22.5715 15.5999 22.9606 15.7077 23.3794 15.7077C23.8887 15.7077 24.32 15.5608 24.6731 15.2671C25.0262 14.9733 25.2653 14.5374 25.3903 13.9593ZM30.5653 15.7546C30.2528 16.0202 29.9512 16.2077 29.6606 16.3171C29.3731 16.4265 29.0637 16.4812 28.7325 16.4812C28.1856 16.4812 27.7653 16.3483 27.4715 16.0827C27.1778 15.814 27.0309 15.4718 27.0309 15.0562C27.0309 14.8124 27.0856 14.5905 27.195 14.3905C27.3075 14.1874 27.4528 14.0249 27.6309 13.903C27.8122 13.7812 28.0153 13.689 28.2403 13.6265C28.4059 13.5827 28.6559 13.5405 28.9903 13.4999C29.6715 13.4187 30.1731 13.3218 30.495 13.2093C30.4981 13.0937 30.4997 13.0202 30.4997 12.989C30.4997 12.6452 30.42 12.403 30.2606 12.2624C30.045 12.0718 29.7247 11.9765 29.2997 11.9765C28.9028 11.9765 28.609 12.0468 28.4184 12.1874C28.2309 12.3249 28.0919 12.5702 28.0012 12.9233L27.1762 12.8108C27.2512 12.4577 27.3747 12.1733 27.5465 11.9577C27.7184 11.739 27.9669 11.5718 28.2919 11.4562C28.6169 11.3374 28.9934 11.278 29.4215 11.278C29.8465 11.278 30.1919 11.328 30.4575 11.428C30.7231 11.528 30.9184 11.6546 31.0434 11.8077C31.1684 11.9577 31.2559 12.1483 31.3059 12.3796C31.334 12.5233 31.3481 12.7827 31.3481 13.1577V14.2827C31.3481 15.0671 31.3653 15.564 31.3997 15.7733C31.4372 15.9796 31.509 16.178 31.6153 16.3687H30.734C30.6465 16.1937 30.5903 15.989 30.5653 15.7546ZM30.495 13.8702C30.1887 13.9952 29.7294 14.1015 29.1169 14.189C28.77 14.239 28.5247 14.2952 28.3809 14.3577C28.2372 14.4202 28.1262 14.5124 28.0481 14.6343C27.97 14.753 27.9309 14.8858 27.9309 15.0327C27.9309 15.2577 28.0153 15.4452 28.184 15.5952C28.3559 15.7452 28.6059 15.8202 28.934 15.8202C29.259 15.8202 29.5481 15.7499 29.8012 15.6093C30.0544 15.4655 30.2403 15.2702 30.359 15.0233C30.4497 14.8327 30.495 14.5515 30.495 14.1796V13.8702ZM32.6512 16.3687V11.3905H33.4106V12.1452C33.6044 11.7921 33.7825 11.5593 33.945 11.4468C34.1106 11.3343 34.2919 11.278 34.4887 11.278C34.7731 11.278 35.0622 11.3687 35.3559 11.5499L35.0653 12.3327C34.859 12.2108 34.6528 12.1499 34.4465 12.1499C34.2622 12.1499 34.0965 12.2062 33.9497 12.3187C33.8028 12.428 33.6981 12.5812 33.6356 12.778C33.5419 13.078 33.495 13.4062 33.495 13.7624V16.3687H32.6512ZM39.0872 16.3687V15.7405C38.7715 16.2343 38.3075 16.4812 37.695 16.4812C37.2981 16.4812 36.9325 16.3718 36.5981 16.153C36.2669 15.9343 36.009 15.6296 35.8247 15.239C35.6434 14.8452 35.5528 14.3937 35.5528 13.8843C35.5528 13.3874 35.6356 12.9374 35.8012 12.5343C35.9669 12.128 36.2153 11.8171 36.5465 11.6015C36.8778 11.3858 37.2481 11.278 37.6575 11.278C37.9575 11.278 38.2247 11.3421 38.459 11.4702C38.6934 11.5952 38.884 11.7593 39.0309 11.9624V9.49678H39.87V16.3687H39.0872ZM36.42 13.8843C36.42 14.5218 36.5544 14.9983 36.8231 15.314C37.0919 15.6296 37.409 15.7874 37.7747 15.7874C38.1434 15.7874 38.4559 15.6374 38.7122 15.3374C38.9715 15.0343 39.1012 14.5733 39.1012 13.9546C39.1012 13.2733 38.97 12.7733 38.7075 12.4546C38.445 12.1358 38.1215 11.9765 37.7372 11.9765C37.3622 11.9765 37.0481 12.1296 36.795 12.4358C36.545 12.7421 36.42 13.2249 36.42 13.8843Z" fill="black"></path>
        </svg>