<svg xmlns="http://www.w3.org/2000/svg" width="20" height="20" viewBox="0 0 12 8" fill="none" aria-hidden="true" focusable="false">
            <title>Checkmark</title>
            <path d="M3.76873 6.2539L9.80882 0.213808C9.95136 0.0712695 10.1177 0 10.3077 0C10.4978 0 10.6641 0.0712695 10.8066 0.213808C10.9491 0.356347 11.0204 0.525612 11.0204 0.721604C11.0204 0.917595 10.9491 1.08686 10.8066 1.2294L4.26762 7.78619C4.12508 7.92873 3.95878 8 3.76873 8C3.57868 8 3.41238 7.92873 3.26984 7.78619L0.205256 4.7216C0.0627172 4.57906 -0.00558278 4.4098 0.000356347 4.21381C0.00629547 4.01782 0.0805345 3.84855 0.223074 3.70601C0.365613 3.56347 0.534878 3.4922 0.730869 3.4922C0.92686 3.4922 1.09612 3.56347 1.23866 3.70601L3.76873 6.2539Z" fill="#085368"></path>
        </svg>