<svg xmlns="http://www.w3.org/2000/svg" width="10" height="16" viewBox="0 0 10 16" fill="none" aria-hidden="true" focusable="false">
            <title>Chevron Left</title>
            <g clip-path="url(#clip0_9282_5772)">
                <path d="M3.29923 8.00544L9.50081 14.207C9.71175 14.418 9.8137 14.6641 9.80667 14.9453C9.79964 15.2266 9.69065 15.4727 9.47971 15.6836C9.26878 15.8945 9.02268 16 8.74143 16C8.46018 16 8.21409 15.8945 8.00315 15.6836L1.50625 9.20779C1.3375 9.03904 1.21094 8.8492 1.12656 8.63826C1.04219 8.42732 1 8.21638 1 8.00544C1 7.79451 1.04219 7.58357 1.12656 7.37263C1.21094 7.16169 1.3375 6.97185 1.50625 6.8031L8.00315 0.306201C8.21409 0.0952624 8.4637 -0.00669105 8.75198 0.000340223C9.04026 0.0073715 9.28987 0.116356 9.50081 0.327294C9.71175 0.538233 9.81721 0.784327 9.81721 1.06558C9.81721 1.34683 9.71175 1.59292 9.50081 1.80386L3.29923 8.00544Z" fill="#085368"></path>
            </g>
            <defs>
                <clipPath id="clip0_9282_5772">
                    <rect width="8.8" height="16" fill="white" transform="translate(0.800049)"></rect>
                </clipPath>
            </defs>
        </svg>