<svg xmlns="http://www.w3.org/2000/svg" width="20" height="20" viewBox="0 0 16 10" fill="none" aria-hidden="true" focusable="false">
            <title>Dropdown chevron</title>
            <path d="M7.99652 6.91661L14.0962 0.816562C14.3036 0.609396 14.5643 0.503317 14.8783 0.498325C15.1921 0.493582 15.4575 0.599661 15.6746 0.816562C15.8915 1.03371 16 1.29679 16 1.60579C16 1.91479 15.8915 2.17787 15.6746 2.39502L8.94412 9.12555C8.80384 9.26557 8.65596 9.36442 8.50046 9.42207C8.34496 9.47973 8.17698 9.50856 7.99652 9.50856C7.81606 9.50856 7.64808 9.47973 7.49258 9.42207C7.33708 9.36442 7.18919 9.26557 7.04892 9.12555L0.318389 2.39502C0.111223 2.1876 0.00514428 1.9269 0.000152326 1.6129C-0.00459003 1.29916 0.101488 1.03371 0.318389 0.816562C0.535539 0.599661 0.798616 0.491211 1.10762 0.491211C1.41662 0.491211 1.6797 0.599661 1.89685 0.816562L7.99652 6.91661Z" fill="#085368"></path>
        </svg>