<svg xmlns="http://www.w3.org/2000/svg" width="20" height="20" viewBox="0 0 16 16" fill="none" aria-hidden="true" focusable="false">
            <title>Chevron Right</title>
            <mask id="mask0_8469_17786" mask-type="alpha" maskUnits="userSpaceOnUse" x="0" y="0" width="16" height="16">
                <rect width="16" height="16" fill="#D9D9D9"></rect>
            </mask>
            <g mask="url(#mask0_8469_17786)">
                <path d="M9.4254 8.00348L3.32535 1.90381C3.11818 1.69639 3.01211 1.43569 3.00711 1.12169C3.00237 0.807949 3.10845 0.542501 3.32535 0.325351C3.5425 0.10845 3.80558 0 4.11458 0C4.42358 0 4.68666 0.10845 4.90381 0.325351L11.6343 7.05588C11.7744 7.19616 11.8732 7.34404 11.9309 7.49954C11.9885 7.65504 12.0173 7.82302 12.0173 8.00348C12.0173 8.18394 11.9885 8.35192 11.9309 8.50742C11.8732 8.66292 11.7744 8.81081 11.6343 8.95108L4.90381 15.6816C4.69639 15.8888 4.43569 15.9949 4.12169 15.9998C3.80795 16.0046 3.5425 15.8985 3.32535 15.6816C3.10845 15.4645 3 15.2014 3 14.8924C3 14.5834 3.10845 14.3203 3.32535 14.1032L9.4254 8.00348Z" fill="#085368"></path>
            </g>
        </svg>