<svg width="36" height="25" viewBox="0 0 36 25" fill="none" xmlns="http://www.w3.org/2000/svg" aria-hidden="true" focusable="false">
            <title>Discover</title>
            <rect x="1.22035" y="1.16865" width="34.4" height="23.4" rx="2.7" fill="white" stroke="#D9D9D9" stroke-width="0.6"></rect>
            <path d="M15.6545 24.3687L35.4046 18.6187V21.8687C35.4046 23.2494 34.2853 24.3687 32.9046 24.3687H15.6545Z" fill="#FD6020"></path>
            <path d="M15.8463 10.48C16.2266 10.48 16.661 10.5337 16.9869 10.7485V11.8227C16.7153 11.5005 16.2808 11.2856 15.8463 11.2856C14.9773 11.3394 14.2707 12.0912 14.3248 12.9507V13.0581C14.3248 13.9177 15.0318 14.563 15.901 14.563C16.3354 14.5629 16.7154 14.3479 16.9869 14.0259V15.1001C16.6069 15.2611 16.2269 15.3686 15.7926 15.3686C14.4344 15.3686 13.3473 14.2401 13.3473 12.8969C13.3474 11.5002 14.434 10.3726 15.8463 10.48ZM24.3756 13.7036L25.6803 10.48H26.6578L24.6481 15.3686H24.1588L22.1481 10.48H23.1266L24.3756 13.7036ZM11.5006 10.3716C11.9894 10.3717 12.4778 10.5874 12.858 10.9096L12.3698 11.5542C12.1525 11.3393 11.8806 11.1782 11.609 11.1782C11.283 11.1245 11.011 11.3929 10.9567 11.7153C10.9567 11.9839 11.1205 12.0912 11.6637 12.3061C12.7499 12.7359 13.0215 13.0589 13.0758 13.7036V13.8647C13.0213 14.7241 12.315 15.3686 11.4459 15.3149C10.7941 15.3149 10.142 14.9927 9.81604 14.4018L10.4137 13.811C10.5767 14.1868 10.9569 14.4554 11.3912 14.4555H11.4459C11.7718 14.4555 12.098 14.1332 12.0983 13.7573C12.0983 13.5424 11.9888 13.3804 11.8258 13.2729C11.6087 13.1656 11.3916 13.0581 11.1744 13.0044C10.3052 12.7357 10.0338 12.36 10.0338 11.7153V11.6616C10.0881 10.9094 10.74 10.3178 11.5006 10.3716ZM5.85022 10.48C7.15405 10.5337 8.1858 11.6085 8.13147 12.8979C8.13127 13.5961 7.80544 14.2407 7.26233 14.7241C6.77349 15.1 6.17616 15.3149 5.57874 15.2612H4.22034V10.48H5.85022ZM9.43616 15.2612H8.51233V10.48H9.43616V15.2612ZM29.6998 11.2856H28.0162V12.3598H29.6461V13.1655H28.0162V14.4555H29.6998V15.2612H27.0924V10.48H29.6998V11.2856ZM31.6559 10.48C32.7421 10.48 33.3393 10.9634 33.3395 11.8764C33.3936 12.5746 32.9052 13.1664 32.2535 13.2739L33.7203 15.2612H32.5797L31.3297 13.3276H31.2213V15.2612H30.2975V10.48H31.6559ZM5.41565 11.2856H5.14417V14.4555H5.41565C5.85012 14.5092 6.33874 14.348 6.66467 14.0796C6.99054 13.7573 7.15383 13.3276 7.15393 12.8442C7.15393 12.4145 6.9905 11.9849 6.66467 11.6626C6.33875 11.394 5.85021 11.232 5.41565 11.2856ZM31.2213 12.6831H31.4928C32.0902 12.683 32.3618 12.4134 32.3619 11.9301C32.3617 11.5006 32.0901 11.2319 31.4928 11.2319H31.2213V12.6831Z" fill="black"></path>
            <path fill-rule="evenodd" clip-rule="evenodd" d="M19.7581 10.3687C18.3999 10.3687 17.259 11.4432 17.259 12.8401C17.259 14.1833 18.3455 15.3115 19.7581 15.3653C21.1706 15.419 22.2571 14.2907 22.3115 12.8938C22.2571 11.4969 21.1706 10.3687 19.7581 10.3687V10.3687Z" fill="#FD6020"></path>
        </svg>