<svg xmlns="http://www.w3.org/2000/svg" width="20" height="20" viewBox="0 0 39 40" fill="none" aria-hidden="true" focusable="false">
            <title>Document Search</title>
            <path d="M2.28442 1.77959V15.9485V15.8528V36.0728V1.77959ZM3.58175 37.8524C2.71792 37.8524 1.98834 37.5555 1.393 36.9618C0.797667 36.3681 0.5 35.6405 0.5 34.779V3.07341C0.5 2.21191 0.797667 1.48431 1.393 0.890583C1.98834 0.296861 2.71792 0 3.58175 0H19.5952C20.032 0 20.4375 0.0844673 20.8118 0.253401C21.1858 0.422335 21.5173 0.642088 21.8066 0.912663L29.1056 8.19189C29.3769 8.48034 29.5972 8.81102 29.7666 9.18394C29.936 9.55721 30.0207 9.96167 30.0207 10.3973V15.7866C30.0207 16.0442 29.9344 16.2562 29.7619 16.4227C29.5893 16.5892 29.3755 16.6724 29.1203 16.6724C28.8655 16.6724 28.6545 16.5871 28.4872 16.4164C28.3199 16.246 28.2363 16.0349 28.2363 15.7829V9.9699H21.4961C21.0817 9.9699 20.7241 9.8199 20.4233 9.51988C20.1225 9.21951 19.9721 8.86272 19.9721 8.4495V1.77959H3.58175C3.25737 1.77959 2.96006 1.91435 2.6898 2.18387C2.41955 2.4534 2.28442 2.74991 2.28442 3.07341V34.779C2.28442 35.1025 2.41955 35.399 2.6898 35.6685C2.96006 35.9381 3.25737 36.0728 3.58175 36.0728H16.0822C16.3349 36.0728 16.5468 36.1589 16.7179 36.3309C16.8887 36.503 16.9741 36.7163 16.9741 36.9708C16.9741 37.2252 16.8887 37.4357 16.7179 37.6022C16.5468 37.769 16.3349 37.8524 16.0822 37.8524H3.58175ZM26.8657 34.4552C28.5709 34.4552 30.0096 33.8679 31.182 32.6934C32.3541 31.519 32.9401 30.0816 32.9401 28.3814C32.9401 26.6809 32.3513 25.246 31.1736 24.0768C29.9959 22.9079 28.5547 22.3235 26.8499 22.3235C25.1447 22.3235 23.7059 22.9107 22.5335 24.0852C21.3615 25.2596 20.7755 26.697 20.7755 28.3972C20.7755 30.0977 21.3643 31.5326 22.542 32.7019C23.7196 33.8707 25.1609 34.4552 26.8657 34.4552ZM38.2501 39.7477C38.0835 39.9159 37.8716 40 37.6144 40C37.3575 40 37.1449 39.9159 36.9765 39.7477L31.7645 34.5093C31.0806 35.054 30.3245 35.4777 29.4962 35.7805C28.6682 36.0833 27.7887 36.2347 26.8578 36.2347C24.6725 36.2347 22.815 35.4714 21.2852 33.9447C19.7558 32.4183 18.991 30.5646 18.991 28.3835C18.991 26.2028 19.7565 24.351 21.2873 22.8282C22.8178 21.3053 24.6766 20.5439 26.8636 20.5439C29.0502 20.5439 30.907 21.3065 32.434 22.8318C33.961 24.3575 34.7245 26.21 34.7245 28.3893C34.7245 29.3177 34.5727 30.1948 34.2691 31.0206C33.9654 31.8467 33.5405 32.6007 32.9944 33.2828L38.247 38.4806C38.4157 38.6464 38.5 38.8571 38.5 39.1126C38.5 39.3681 38.4167 39.5798 38.2501 39.7477Z" fill="#085368"></path>
        </svg>