<svg xmlns="http://www.w3.org/2000/svg" width="20" height="20" viewBox="0 0 17 17" fill="none" aria-hidden="true" focusable="false">
            <title>Download</title>
            <g clip-path="url(#clip0_9944_1050)">
                <path d="M9.04993 12.1691C8.91659 12.1691 8.79159 12.1483 8.67493 12.1066C8.55826 12.0649 8.44993 11.9941 8.34993 11.8941L4.74993 8.29412C4.54993 8.09412 4.45409 7.86078 4.46243 7.59412C4.47076 7.32745 4.56659 7.09412 4.74993 6.89412C4.94993 6.69412 5.18743 6.58995 5.46243 6.58162C5.73743 6.57328 5.97493 6.66912 6.17493 6.86912L8.04993 8.74412V1.59412C8.04993 1.31078 8.14576 1.07328 8.33743 0.881616C8.52909 0.68995 8.76659 0.594116 9.04993 0.594116C9.33326 0.594116 9.57076 0.68995 9.76243 0.881616C9.95409 1.07328 10.0499 1.31078 10.0499 1.59412V8.74412L11.9249 6.86912C12.1249 6.66912 12.3624 6.57328 12.6374 6.58162C12.9124 6.58995 13.1499 6.69412 13.3499 6.89412C13.5333 7.09412 13.6291 7.32745 13.6374 7.59412C13.6458 7.86078 13.5499 8.09412 13.3499 8.29412L9.74993 11.8941C9.64993 11.9941 9.54159 12.0649 9.42493 12.1066C9.30826 12.1483 9.18326 12.1691 9.04993 12.1691ZM3.04993 16.5941C2.49993 16.5941 2.02909 16.3983 1.63743 16.0066C1.24576 15.615 1.04993 15.1441 1.04993 14.5941V12.5941C1.04993 12.3108 1.14576 12.0733 1.33743 11.8816C1.52909 11.6899 1.76659 11.5941 2.04993 11.5941C2.33326 11.5941 2.57076 11.6899 2.76243 11.8816C2.95409 12.0733 3.04993 12.3108 3.04993 12.5941V14.5941H15.0499V12.5941C15.0499 12.3108 15.1458 12.0733 15.3374 11.8816C15.5291 11.6899 15.7666 11.5941 16.0499 11.5941C16.3333 11.5941 16.5708 11.6899 16.7624 11.8816C16.9541 12.0733 17.0499 12.3108 17.0499 12.5941V14.5941C17.0499 15.1441 16.8541 15.615 16.4624 16.0066C16.0708 16.3983 15.5999 16.5941 15.0499 16.5941H3.04993Z" fill="#085368"></path>
            </g>
            <defs>
                <clipPath id="clip0_9944_1050">
                    <rect width="16" height="16" fill="white" transform="translate(0.771179 0.312012)"></rect>
                </clipPath>
            </defs>
        </svg>