<svg xmlns="http://www.w3.org/2000/svg" width="20" height="20" viewBox="0 0 14 16" fill="none" aria-hidden="true" focusable="false">
            <title>Home</title>
            <path d="M1.75 14.1202H4.375V9.58689C4.375 9.33001 4.45885 9.11467 4.62656 8.9409C4.79427 8.76712 5.00208 8.68023 5.25 8.68023H8.75C8.99792 8.68023 9.20573 8.76712 9.37344 8.9409C9.54115 9.11467 9.625 9.33001 9.625 9.58689V14.1202H12.25V5.96023L7 1.88023L1.75 5.96023V14.1202ZM0 14.1202V5.96023C0 5.67312 0.0619792 5.40112 0.185938 5.14423C0.309896 4.88734 0.48125 4.67578 0.7 4.50956L5.95 0.429561C6.25625 0.187783 6.60625 0.0668945 7 0.0668945C7.39375 0.0668945 7.74375 0.187783 8.05 0.429561L13.3 4.50956C13.5188 4.67578 13.6901 4.88734 13.8141 5.14423C13.938 5.40112 14 5.67312 14 5.96023V14.1202C14 14.6189 13.8286 15.0458 13.4859 15.4009C13.1432 15.756 12.7312 15.9336 12.25 15.9336H8.75C8.50208 15.9336 8.29427 15.8467 8.12656 15.6729C7.95885 15.4991 7.875 15.2838 7.875 15.0269V10.4936H6.125V15.0269C6.125 15.2838 6.04115 15.4991 5.87344 15.6729C5.70573 15.8467 5.49792 15.9336 5.25 15.9336H1.75C1.26875 15.9336 0.856771 15.756 0.514063 15.4009C0.171354 15.0458 0 14.6189 0 14.1202Z" fill="#085368"></path>
        </svg>