<svg xmlns="http://www.w3.org/2000/svg" width="16" height="16" viewBox="0 0 16 16" fill="none" aria-hidden="true" focusable="false">
            <title>Kebab</title>
            <mask height="16" id="mask0_9882_815" mask-type="alpha" maskUnits="userSpaceOnUse" width="16" x="0" y="0">
                <rect width="16" height="16" fill="#D9D9D9"></rect>
            </mask>
            <g mask="url(#mask0_9882_815)">
                <path d="M7.65079 16C7.19682 16 6.80824 15.8383 6.48506 15.5149C6.16169 15.1918 6 14.8032 6 14.3492C6 13.8952 6.16169 13.5066 6.48506 13.1832C6.80824 12.86 7.19682 12.6984 7.65079 12.6984C8.10476 12.6984 8.49333 12.86 8.81652 13.1832C9.13989 13.5066 9.30158 13.8952 9.30158 14.3492C9.30158 14.8032 9.13989 15.1918 8.81652 15.5149C8.49333 15.8383 8.10476 16 7.65079 16ZM7.65079 9.65079C7.19682 9.65079 6.80824 9.4891 6.48506 9.16573C6.16169 8.84254 6 8.45397 6 8C6 7.54603 6.16169 7.15746 6.48506 6.83427C6.80824 6.5109 7.19682 6.34921 7.65079 6.34921C8.10476 6.34921 8.49333 6.5109 8.81652 6.83427C9.13989 7.15746 9.30158 7.54603 9.30158 8C9.30158 8.45397 9.13989 8.84254 8.81652 9.16573C8.49333 9.4891 8.10476 9.65079 7.65079 9.65079ZM7.65079 3.30158C7.19682 3.30158 6.80824 3.13998 6.48506 2.8168C6.16169 2.49343 6 2.10476 6 1.65079C6 1.19682 6.16169 0.808245 6.48506 0.485057C6.80824 0.161686 7.19682 0 7.65079 0C8.10476 0 8.49333 0.161686 8.81652 0.485057C9.13989 0.808245 9.30158 1.19682 9.30158 1.65079C9.30158 2.10476 9.13989 2.49343 8.81652 2.8168C8.49333 3.13998 8.10476 3.30158 7.65079 3.30158Z" fill="#085368"></path>
            </g>
        </svg>