<svg width="36" height="25" viewBox="0 0 36 25" fill="none" xmlns="http://www.w3.org/2000/svg" aria-hidden="true" focusable="false">
            <title>Mastercard</title>
            <rect x="0.645825" y="1.16865" width="34.4" height="23.4" rx="2.7" fill="white" stroke="#D9D9D9" stroke-width="0.6"></rect>
            <path d="M22.5217 5.86865C26.2903 5.86865 29.3459 8.95956 29.3459 12.772C29.3457 16.5842 26.2902 19.6743 22.5217 19.6743C20.8323 19.6742 19.2875 19.0518 18.0959 18.0229C16.9042 19.0518 15.3595 19.6742 13.6701 19.6743C9.90155 19.6743 6.84607 16.5842 6.84589 12.772C6.84589 8.95956 9.90144 5.86865 13.6701 5.86865C15.3592 5.86876 16.9043 6.49051 18.0959 7.51904C19.2875 6.49049 20.8325 5.86875 22.5217 5.86865Z" fill="#ED0006"></path>
            <path d="M22.5217 5.86865C26.2903 5.86865 29.3459 8.95956 29.3459 12.772C29.3457 16.5842 26.2902 19.6743 22.5217 19.6743C20.8323 19.6742 19.2875 19.0518 18.0959 18.0229C19.5623 16.7569 20.4932 14.875 20.4933 12.772C20.4933 10.6685 19.5627 8.78517 18.0959 7.51904C19.2875 6.49049 20.8325 5.86875 22.5217 5.86865Z" fill="#F9A000"></path>
            <path d="M18.0958 7.51929C19.5625 8.78535 20.4932 10.668 20.4933 12.7712C20.4933 14.8745 19.5624 16.7571 18.0958 18.0232C16.6293 16.7571 15.6984 14.8745 15.6984 12.7712C15.6985 10.668 16.6292 8.78535 18.0958 7.51929Z" fill="#FF5E00"></path>
        </svg>