<svg xmlns="http://www.w3.org/2000/svg" width="20" height="20" viewBox="0 0 20 19" fill="none" aria-hidden="true" focusable="false">
            <title>New Window</title>
            <path d="M16.371 16.8138H3.95116C3.38192 16.8138 2.91617 16.348 2.91617 15.7788V3.35888C2.91617 2.78963 3.38192 2.32389 3.95116 2.32389H9.12611C9.69536 2.32389 10.1611 1.85814 10.1611 1.2889C10.1611 0.719652 9.69536 0.253906 9.12611 0.253906H2.91617C1.76733 0.253906 0.846191 1.1854 0.846191 2.32389V16.8138C0.846191 17.9522 1.77768 18.8837 2.91617 18.8837H17.406C18.5445 18.8837 19.476 17.9522 19.476 16.8138V10.6038C19.476 10.0346 19.0103 9.56882 18.441 9.56882C17.8718 9.56882 17.406 10.0346 17.406 10.6038V15.7788C17.406 16.348 16.9403 16.8138 16.371 16.8138ZM12.2311 1.2889C12.2311 1.85814 12.6968 2.32389 13.2661 2.32389H15.9467L6.49724 11.7733C6.09359 12.177 6.09359 12.829 6.49724 13.2327C6.90088 13.6363 7.55293 13.6363 7.95657 13.2327L17.406 3.78322V6.46385C17.406 7.03309 17.8718 7.49884 18.441 7.49884C19.0103 7.49884 19.476 7.03309 19.476 6.46385V1.2889C19.476 0.719652 19.0103 0.253906 18.441 0.253906H13.2661C12.6968 0.253906 12.2311 0.719652 12.2311 1.2889Z" fill="#085368"></path>
        </svg>