<svg xmlns="http://www.w3.org/2000/svg" width="20" height="20" viewBox="0 0 41 44" fill="none" aria-hidden="true" focusable="false">
            <title>Paperless</title>
            <path d="M4.97535 0.971719C5.31267 0.267652 6.09248 -0.125642 6.86988 0.036172C7.02389 0.0682516 7.21431 0.109035 7.43531 0.160195C8.09214 0.312277 9.02782 0.553485 10.1394 0.906289C12.3636 1.61229 15.2944 2.76791 18.1209 4.56742C20.0259 5.78024 21.8749 7.27967 23.4431 9.11918C27.3269 7.26212 32.1156 5.97791 38.0242 5.61527C38.6912 5.57433 39.2955 6.01181 39.4656 6.65824C39.4892 6.74799 41.1871 13.2329 40.1609 20.4649C39.4563 25.4319 37.469 30.7302 32.8982 34.6358C28.2496 38.6088 20.8609 41.1861 9.20679 40.2774C6.85297 41.6817 4.44535 42.7802 2.12867 43.3594C1.21117 43.5886 0.281287 43.0306 0.0515185 42.1133C-0.177953 41.1954 0.380704 40.2647 1.29859 40.0352C3.03702 39.6005 4.89806 38.7879 6.78492 37.7188C6.78417 36.1025 6.92041 32.9568 7.79957 29.2403C6.13255 27.0834 4.6728 24.5306 3.70875 21.5489L3.55152 21.044C1.97535 15.7917 1.9062 9.21625 4.91382 1.11625L4.97535 0.971719ZM36.4919 9.17289C28.1474 9.99165 22.6209 12.8396 18.8875 16.2413V16.2422C14.166 20.5419 11.9712 26.0849 10.9763 30.7217C10.5905 32.5201 10.393 34.1485 10.2957 35.46C11.7906 34.387 13.2633 33.1966 14.6589 31.9405C18.9124 28.1123 22.1261 24.012 23.1287 21.5059C23.4801 20.6278 24.477 20.2008 25.3552 20.5518C26.2333 20.9034 26.6616 21.9011 26.3103 22.7793C25.012 26.0246 21.324 30.5516 16.9509 34.4873C15.984 35.3576 14.9646 36.2113 13.9128 37.0313C22.2849 37.0005 27.4482 34.7872 30.6726 32.0313V32.0303C34.4075 28.8389 36.1375 24.4305 36.7683 19.9834C37.2306 16.7258 37.079 13.5876 36.7986 11.2354C36.7036 10.4383 36.5928 9.74142 36.4919 9.17289ZM7.62281 3.7393C5.37319 10.5304 5.57865 15.8841 6.83472 20.0655L6.96851 20.4942C7.50628 22.1576 8.22686 23.6723 9.06519 25.0469C9.8871 22.8409 11.0006 20.5665 12.5056 18.3838L12.4412 18.4063C11.6952 16.1686 10.3215 13.7084 9.50367 12.3995L9.19019 11.9131L9.10035 11.7627C8.69424 10.9953 8.92778 10.0291 9.66578 9.53715C10.4039 9.04533 11.3852 9.20184 11.9373 9.87211L12.0418 10.0127L12.3894 10.5538C13.0691 11.6389 14.0933 13.4336 14.9285 15.3526C15.4461 14.7917 15.9949 14.2417 16.5798 13.709C17.7086 12.6806 18.9665 11.7088 20.3689 10.8184C19.1645 9.51799 17.7664 8.40367 16.281 7.45805C13.7811 5.86638 11.1452 4.82035 9.1023 4.17191C8.5556 3.9984 8.05688 3.85541 7.62281 3.7393Z" fill="#085368"></path>
        </svg>