<svg xmlns="http://www.w3.org/2000/svg" width="20" height="20" viewBox="0 0 17 17" fill="none" aria-hidden="true" focusable="false">
            <title>Success</title>
            <path d="M7.67999 9.44L5.95999 7.72C5.81332 7.57333 5.62665 7.5 5.39999 7.5C5.17332 7.5 4.98665 7.57333 4.83999 7.72C4.69332 7.86667 4.61999 8.05333 4.61999 8.28C4.61999 8.50667 4.69332 8.69333 4.83999 8.84L7.11999 11.12C7.27999 11.28 7.46665 11.36 7.67999 11.36C7.89332 11.36 8.07999 11.28 8.23999 11.12L12.76 6.6C12.9067 6.45333 12.98 6.26667 12.98 6.04C12.98 5.81333 12.9067 5.62667 12.76 5.48C12.6133 5.33333 12.4267 5.26 12.2 5.26C11.9733 5.26 11.7867 5.33333 11.64 5.48L7.67999 9.44ZM8.79999 16C7.69332 16 6.65332 15.79 5.67999 15.37C4.70665 14.95 3.85999 14.38 3.13999 13.66C2.41999 12.94 1.84999 12.0933 1.42999 11.12C1.00999 10.1467 0.799988 9.10667 0.799988 8C0.799988 6.89333 1.00999 5.85333 1.42999 4.88C1.84999 3.90667 2.41999 3.06 3.13999 2.34C3.85999 1.62 4.70665 1.05 5.67999 0.63C6.65332 0.21 7.69332 0 8.79999 0C9.90665 0 10.9467 0.21 11.92 0.63C12.8933 1.05 13.74 1.62 14.46 2.34C15.18 3.06 15.75 3.90667 16.17 4.88C16.59 5.85333 16.8 6.89333 16.8 8C16.8 9.10667 16.59 10.1467 16.17 11.12C15.75 12.0933 15.18 12.94 14.46 13.66C13.74 14.38 12.8933 14.95 11.92 15.37C10.9467 15.79 9.90665 16 8.79999 16ZM8.79999 14.4C10.5867 14.4 12.1 13.78 13.34 12.54C14.58 11.3 15.2 9.78667 15.2 8C15.2 6.21333 14.58 4.7 13.34 3.46C12.1 2.22 10.5867 1.6 8.79999 1.6C7.01332 1.6 5.49999 2.22 4.25999 3.46C3.01999 4.7 2.39999 6.21333 2.39999 8C2.39999 9.78667 3.01999 11.3 4.25999 12.54C5.49999 13.78 7.01332 14.4 8.79999 14.4Z" fill="#085368"></path>
        </svg>