<svg width="36" height="25" viewBox="0 0 36 25" fill="none" xmlns="http://www.w3.org/2000/svg" aria-hidden="true" focusable="false">
            <title>Visa</title>
            <rect x="1.07124" y="1.16865" width="34.4" height="23.4" rx="2.7" fill="white" stroke="#D9D9D9" stroke-width="0.6"></rect>
            <path fill-rule="evenodd" clip-rule="evenodd" d="M11.3965 17.1269H9.27618L7.68619 11.061C7.61073 10.782 7.45049 10.5353 7.21478 10.419C6.62655 10.1269 5.97836 9.89433 5.27124 9.77706V9.54352H8.68691C9.15832 9.54352 9.51188 9.89433 9.57081 10.3018L10.3958 14.6773L12.5151 9.54352H14.5765L11.3965 17.1269ZM15.755 17.1269H13.7525L15.4014 9.54352H17.4039L15.755 17.1269ZM19.9946 11.6444C20.0536 11.2359 20.4071 11.0024 20.8196 11.0024C21.4678 10.9438 22.1739 11.061 22.7632 11.3522L23.1167 9.71946C22.5274 9.48593 21.8793 9.36865 21.291 9.36865C19.3475 9.36865 17.9332 10.4191 17.9332 11.8769C17.9332 12.9859 18.935 13.5683 19.6421 13.9191C20.4071 14.2689 20.7018 14.5024 20.6428 14.8522C20.6428 15.3769 20.0536 15.6104 19.4653 15.6104C18.7582 15.6104 18.0511 15.4355 17.4039 15.1434L17.0504 16.7771C17.7575 17.0683 18.5225 17.1855 19.2296 17.1855C21.4089 17.2432 22.7632 16.1938 22.7632 14.6187C22.7632 12.6351 19.9946 12.5189 19.9946 11.6444ZM29.7713 17.1269L28.1813 9.54352H26.4735C26.1199 9.54352 25.7663 9.77706 25.6485 10.1269L22.7042 17.1269H24.7656L25.1771 16.0188H27.7099L27.9456 17.1269H29.7713ZM26.7681 11.5858L27.3563 14.4438H25.7074L26.7681 11.5858Z" fill="#172B85"></path>
        </svg>