<svg xmlns="http://www.w3.org/2000/svg" width="20" height="20" viewBox="0 0 13 16" fill="none" aria-hidden="true" focusable="false">
            <title>Warning</title>
            <path d="M0.8 13.6C0.573333 13.6 0.383333 13.5233 0.23 13.37C0.0766667 13.2167 0 13.0267 0 12.8C0 12.5733 0.0766667 12.3833 0.23 12.23C0.383333 12.0767 0.573333 12 0.8 12H1.6V6.4C1.6 5.29333 1.93333 4.31 2.6 3.45C3.26667 2.59 4.13333 2.02667 5.2 1.76V1.2C5.2 0.866667 5.31667 0.583333 5.55 0.35C5.78333 0.116667 6.06667 0 6.4 0C6.73333 0 7.01667 0.116667 7.25 0.35C7.48333 0.583333 7.6 0.866667 7.6 1.2V1.76C8.66667 2.02667 9.53333 2.59 10.2 3.45C10.8667 4.31 11.2 5.29333 11.2 6.4V12H12C12.2267 12 12.4167 12.0767 12.57 12.23C12.7233 12.3833 12.8 12.5733 12.8 12.8C12.8 13.0267 12.7233 13.2167 12.57 13.37C12.4167 13.5233 12.2267 13.6 12 13.6H0.8ZM6.4 16C5.96 16 5.58333 15.8433 5.27 15.53C4.95667 15.2167 4.8 14.84 4.8 14.4H8C8 14.84 7.84333 15.2167 7.53 15.53C7.21667 15.8433 6.84 16 6.4 16ZM3.2 12H9.6V6.4C9.6 5.52 9.28667 4.76667 8.66 4.14C8.03333 3.51333 7.28 3.2 6.4 3.2C5.52 3.2 4.76667 3.51333 4.14 4.14C3.51333 4.76667 3.2 5.52 3.2 6.4V12ZM6.4 8.8C6.62667 8.8 6.81667 8.72333 6.97 8.57C7.12333 8.41667 7.2 8.22667 7.2 8V5.6C7.2 5.37333 7.12333 5.18333 6.97 5.03C6.81667 4.87667 6.62667 4.8 6.4 4.8C6.17333 4.8 5.98333 4.87667 5.83 5.03C5.67667 5.18333 5.6 5.37333 5.6 5.6V8C5.6 8.22667 5.67667 8.41667 5.83 8.57C5.98333 8.72333 6.17333 8.8 6.4 8.8ZM6.4 11.2C6.62667 11.2 6.81667 11.1233 6.97 10.97C7.12333 10.8167 7.2 10.6267 7.2 10.4C7.2 10.1733 7.12333 9.98333 6.97 9.83C6.81667 9.67667 6.62667 9.6 6.4 9.6C6.17333 9.6 5.98333 9.67667 5.83 9.83C5.67667 9.98333 5.6 10.1733 5.6 10.4C5.6 10.6267 5.67667 10.8167 5.83 10.97C5.98333 11.1233 6.17333 11.2 6.4 11.2Z" fill="#085368"></path>
        </svg>