<svg width="401" height="104" viewBox="0 0 401 104" fill="none" xmlns="http://www.w3.org/2000/svg">
<path d="M360.541 103.104C351.997 103.104 345.277 100.8 340.381 96.192C335.485 91.488 333.037 85.152 333.037 77.184C333.037 76.224 333.133 74.592 333.325 72.288L338.509 30.816C339.661 21.408 343.357 13.92 349.597 8.35199C355.933 2.784 363.805 0 373.213 0C381.661 0 388.333 2.352 393.229 7.05599C398.221 11.664 400.717 17.952 400.717 25.92C400.717 26.88 400.621 28.512 400.429 30.816L395.389 72.288C394.237 81.696 390.493 89.184 384.157 94.752C377.821 100.32 369.949 103.104 360.541 103.104ZM363.421 79.92C364.861 79.92 366.061 79.344 367.021 78.192C368.077 77.04 368.749 75.456 369.037 73.44L374.365 29.664C374.557 27.648 374.317 26.064 373.645 24.912C372.973 23.76 371.917 23.184 370.477 23.184C368.941 23.184 367.645 23.76 366.589 24.912C365.629 26.064 365.053 27.648 364.861 29.664L359.533 73.44C359.437 73.824 359.389 74.352 359.389 75.024C359.389 76.56 359.725 77.76 360.397 78.624C361.165 79.488 362.173 79.92 363.421 79.92Z" fill="#197D00"></path>
<path d="M339.138 1.15186C339.714 1.15186 340.146 1.34385 340.434 1.72786C340.818 2.11186 340.962 2.63986 340.866 3.31185L338.562 22.1759C338.466 22.8479 338.226 23.3759 337.842 23.7599C337.458 24.1439 336.93 24.3359 336.258 24.3359H319.554C319.074 24.3359 318.834 24.5759 318.834 25.0559L309.618 99.7919C309.522 100.464 309.282 100.992 308.898 101.376C308.514 101.76 307.986 101.952 307.314 101.952H285.282C284.61 101.952 284.082 101.76 283.698 101.376C283.41 100.992 283.314 100.464 283.41 99.7919L292.626 25.0559C292.626 24.5759 292.386 24.3359 291.906 24.3359H275.778C275.106 24.3359 274.578 24.1439 274.194 23.7599C273.906 23.3759 273.81 22.8479 273.906 22.1759L276.21 3.31185C276.306 2.63986 276.546 2.11186 276.93 1.72786C277.41 1.34385 277.986 1.15186 278.658 1.15186H339.138Z" fill="#197D00"></path>
<path d="M247.018 3.31185C247.114 2.63986 247.354 2.11186 247.738 1.72786C248.218 1.34385 248.794 1.15186 249.466 1.15186H271.21C271.882 1.15186 272.362 1.34385 272.65 1.72786C273.034 2.11186 273.178 2.63986 273.082 3.31185L261.13 99.7919C261.034 100.464 260.794 100.992 260.41 101.376C260.026 101.76 259.498 101.952 258.826 101.952H233.914C232.762 101.952 232.09 101.328 231.898 100.08L226.426 55.8719C226.426 55.5839 226.33 55.4399 226.138 55.4399C225.946 55.4399 225.85 55.5839 225.85 55.8719L220.666 99.7919C220.57 100.464 220.282 100.992 219.802 101.376C219.418 101.76 218.938 101.952 218.362 101.952H196.474C195.898 101.952 195.418 101.76 195.034 101.376C194.746 100.992 194.65 100.464 194.746 99.7919L206.554 3.31185C206.65 2.63986 206.89 2.11186 207.274 1.72786C207.754 1.34385 208.282 1.15186 208.858 1.15186H233.482C234.634 1.15186 235.306 1.77586 235.498 3.02386L241.114 47.5199C241.114 47.8079 241.21 47.9039 241.402 47.8079C241.594 47.7119 241.738 47.5679 241.834 47.3759L247.018 3.31185Z" fill="#197D00"></path>
<path d="M159.79 103.104C151.246 103.104 144.526 100.8 139.63 96.192C134.734 91.488 132.286 85.152 132.286 77.184C132.286 76.224 132.382 74.592 132.574 72.288L137.758 30.816C138.91 21.408 142.606 13.92 148.846 8.35199C155.182 2.784 163.054 0 172.462 0C180.91 0 187.582 2.352 192.478 7.05599C197.47 11.664 199.966 17.952 199.966 25.92C199.966 26.88 199.87 28.512 199.678 30.816L194.638 72.288C193.486 81.696 189.742 89.184 183.406 94.752C177.07 100.32 169.198 103.104 159.79 103.104ZM162.67 79.92C164.11 79.92 165.31 79.344 166.27 78.192C167.326 77.04 167.998 75.456 168.286 73.44L173.614 29.664C173.806 27.648 173.566 26.064 172.894 24.912C172.222 23.76 171.166 23.184 169.726 23.184C168.19 23.184 166.894 23.76 165.838 24.912C164.878 26.064 164.302 27.648 164.11 29.664L158.782 73.44C158.686 73.824 158.638 74.352 158.638 75.024C158.638 76.56 158.974 77.76 159.646 78.624C160.414 79.488 161.422 79.92 162.67 79.92Z" fill="#197D00"></path>
<path d="M102.535 101.952C101.383 101.952 100.711 101.328 100.519 100.08L96.343 63.7919C96.343 63.4079 96.199 63.2159 95.911 63.2159C95.527 63.2159 95.335 63.4559 95.335 63.9359L90.871 99.7919C90.775 100.464 90.487 100.992 90.007 101.376C89.623 101.76 89.143 101.952 88.567 101.952H66.3909C65.8149 101.952 65.335 101.76 64.951 101.376C64.663 100.992 64.567 100.464 64.663 99.7919L76.471 3.31185C76.567 2.63986 76.807 2.11186 77.191 1.72786C77.671 1.34385 78.199 1.15186 78.775 1.15186H110.311C117.991 1.15186 124.039 3.59986 128.455 8.49586C132.967 13.3919 135.223 19.8719 135.223 27.9359C135.223 30.2399 135.127 32.0159 134.935 33.2639C134.263 38.5439 132.775 43.2959 130.471 47.5199C128.167 51.6479 125.191 55.0079 121.543 57.5999C121.063 57.8879 120.919 58.2239 121.111 58.6079L127.303 99.5039V100.08C127.303 100.656 127.111 101.136 126.727 101.52C126.343 101.808 125.863 101.952 125.287 101.952H102.535ZM100.807 24.3359C100.327 24.3359 100.087 24.5759 100.087 25.0559L97.927 41.9039C97.927 42.3839 98.167 42.6239 98.647 42.6239H100.519C102.823 42.6239 104.743 41.6159 106.279 39.5999C107.911 37.5839 108.727 34.7999 108.727 31.2479C108.727 29.0399 108.199 27.3599 107.143 26.2079C106.087 24.9599 104.647 24.3359 102.823 24.3359H100.807Z" fill="#197D00"></path>
<path d="M45.684 1.15186C53.364 1.15186 59.412 3.64786 63.828 8.63986C68.34 13.5359 70.596 20.0639 70.596 28.2239C70.596 30.5279 70.5 32.3039 70.308 33.5519C69.54 39.6959 67.716 45.1199 64.836 49.8239C62.052 54.5279 58.404 58.1759 53.892 60.7679C49.476 63.2639 44.58 64.5119 39.204 64.5119H31.284C30.804 64.5119 30.564 64.7519 30.564 65.2319L26.244 99.7919C26.148 100.464 25.86 100.992 25.38 101.376C24.996 101.76 24.516 101.952 23.94 101.952H1.764C1.188 101.952 0.708 101.76 0.324 101.376C0.036 100.992 -0.06 100.464 0.036 99.7919L11.844 3.31185C11.94 2.63986 12.18 2.11186 12.564 1.72786C13.044 1.34385 13.572 1.15186 14.148 1.15186H45.684ZM35.748 43.6319C37.86 43.6319 39.636 42.8639 41.076 41.3279C42.612 39.6959 43.572 37.2959 43.956 34.1279C44.052 33.5519 44.1 32.7359 44.1 31.6799C44.1 29.2799 43.572 27.4559 42.516 26.2079C41.46 24.9599 40.02 24.3359 38.196 24.3359H36.18C35.7 24.3359 35.46 24.5759 35.46 25.0559L33.3 42.9119C33.108 43.3919 33.3 43.6319 33.876 43.6319H35.748Z" fill="#197D00"></path>
</svg>